<svg width="30" height="37" viewBox="0 0 30 37" fill="none" xmlns="http://www.w3.org/2000/svg">
<path fill-rule="evenodd" clip-rule="evenodd" d="M17.4404 4.23922V0.842991C20.2627 1.34911 22.8858 2.70621 24.9412 4.7616C27.5923 7.41272 29.0817 11.0084 29.0817 14.7577C29.0817 20.9695 25.6504 26.3419 22.4369 30.0375C20.8098 31.9087 19.1869 33.4093 17.9712 34.4427C17.7845 34.6014 17.6071 34.7494 17.4404 34.8862V30.4485C18.224 29.7039 19.0761 28.8333 19.9269 27.8549C22.95 24.3783 25.7555 19.7719 25.7555 14.7577C25.7555 11.8906 24.6165 9.14094 22.5892 7.11361C21.1609 5.68534 19.3741 4.69801 17.4404 4.23922ZM15.7773 36.1552V35.9039L14.9451 34.7152C15.4184 35.3913 15.657 35.7318 15.7773 35.9033V31.942C15.4669 32.2051 15.1867 32.434 14.9451 32.6265C14.6933 32.4258 14.3995 32.1856 14.0733 31.9083C12.9502 30.9537 11.4547 29.5699 9.96344 27.8549C9.07629 26.8347 8.20788 25.7172 7.42362 24.5206H9.81924C11.6846 22.0345 13.5958 19.6034 16.1837 18.009C16.5955 19.0901 17.0071 20.1712 17.4188 21.2523L17.4224 21.262C17.836 22.3482 18.2495 23.4344 18.6633 24.5206H21.0045C20.5103 23.2025 20.0162 21.8843 19.5222 20.5662C19.028 19.2476 18.5337 17.929 18.0393 16.6103C19.654 15.5152 21.4112 15.0248 23.1858 14.6069C17.0298 15.1403 11.6412 18.1204 7.22781 24.2174C5.43933 21.4064 4.13484 18.1769 4.13484 14.7577C4.13484 11.8906 5.27378 9.14094 7.30111 7.11361C9.32843 5.08628 12.0781 3.94734 14.9451 3.94734C15.2238 3.94734 15.5014 3.9581 15.7773 3.97939V0.645582C15.5009 0.629301 15.2235 0.621094 14.9451 0.621094C11.1959 0.621094 7.60021 2.11048 4.94909 4.7616C2.29798 7.41272 0.808594 11.0084 0.808594 14.7577C0.808594 20.9695 4.23987 26.3419 7.45343 30.0375C9.08052 31.9087 10.7034 33.4093 11.9191 34.4427C12.5281 34.9603 13.038 35.3633 13.3993 35.6395C13.58 35.7776 13.7238 35.8842 13.8245 35.9577C13.8748 35.9944 13.9144 36.0229 13.9425 36.043L13.9759 36.0667L13.9859 36.0738L13.9892 36.0761L13.9905 36.077C13.991 36.0773 13.9914 36.0777 14.9451 34.7152L13.9914 36.0777C14.5244 36.4507 15.2215 36.4766 15.7773 36.1552ZM14.379 12.1521L15.1766 14.6679C14.3526 14.9351 13.6837 15.265 13.0938 15.6344L14.379 12.1532V12.1521ZM16.8508 14.0434L14.378 7.36022L9.18367 20.0569C13.8124 16.4217 18.4159 14.4612 23.186 14.3688C21.0983 14.0115 18.9531 13.7322 16.8508 14.0445V14.0434Z" fill="#336699"/>
</svg>
